<svg xmlns="http://www.w3.org/2000/svg" width="810" viewBox="0 0 810 810" height="810" version="1.0"><defs><clipPath id="a"><path d="M 58.554688 0 L 759.804688 0 L 759.804688 810 L 58.554688 810 Z M 58.554688 0"/></clipPath><clipPath id="b"><path d="M 166.453125 148.003906 L 406 148.003906 L 406 601.546875 L 166.453125 601.546875 Z M 166.453125 148.003906"/></clipPath><clipPath id="c"><path d="M 352 148.003906 L 643.65625 148.003906 L 643.65625 601.546875 L 352 601.546875 Z M 352 148.003906"/></clipPath><clipPath id="d"><path d="M 352 148.003906 L 458 148.003906 L 458 275 L 352 275 Z M 352 148.003906"/></clipPath><clipPath id="e"><path d="M 290 387 L 596 387 L 596 485 L 290 485 Z M 290 387"/></clipPath><clipPath id="f"><path d="M 522.523438 306.339844 L 595.601562 484.441406 L 363.164062 579.816406 L 290.085938 401.714844 Z M 522.523438 306.339844"/></clipPath><clipPath id="g"><path d="M 414.496094 43.070312 L 595.644531 484.550781 L 176.050781 656.722656 L -5.101562 215.238281 Z M 414.496094 43.070312"/></clipPath><clipPath id="h"><path d="M 290 306 L 454 306 L 454 485 L 290 485 Z M 290 306"/></clipPath><clipPath id="i"><path d="M 522.523438 306.339844 L 595.601562 484.441406 L 363.164062 579.816406 L 290.085938 401.714844 Z M 522.523438 306.339844"/></clipPath><clipPath id="j"><path d="M 414.496094 43.070312 L 595.644531 484.550781 L 176.050781 656.722656 L -5.101562 215.238281 Z M 414.496094 43.070312"/></clipPath><clipPath id="k"><path d="M 215 387 L 521 387 L 521 486 L 215 486 Z M 215 387"/></clipPath><clipPath id="l"><path d="M 520.289062 402.128906 L 446.613281 579.984375 L 214.496094 483.828125 L 288.175781 305.972656 Z M 520.289062 402.128906"/></clipPath><clipPath id="m"><path d="M 397.332031 43.167969 L 214.699219 484.039062 L 633.710938 657.617188 L 816.347656 216.75 Z M 397.332031 43.167969"/></clipPath><clipPath id="n"><path d="M 357 305 L 521 305 L 521 486 L 357 486 Z M 357 305"/></clipPath><clipPath id="o"><path d="M 520.289062 402.128906 L 446.613281 579.984375 L 214.496094 483.828125 L 288.175781 305.972656 Z M 520.289062 402.128906"/></clipPath><clipPath id="p"><path d="M 397.332031 43.167969 L 214.699219 484.039062 L 633.710938 657.617188 L 816.347656 216.75 Z M 397.332031 43.167969"/></clipPath></defs><g clip-path="url(#a)"><path fill="#0A192F" d="M 759.804688 607.371094 L 409.179688 809.742188 L 58.554688 607.371094 L 58.554688 202.628906 L 409.179688 0.253906 L 759.804688 202.628906 Z M 759.804688 607.371094"/></g><g clip-path="url(#b)"><path fill="#6833E4" d="M 352.953125 148.414062 L 405.054688 274.910156 L 270.671875 601.132812 L 166.453125 601.132812 L 352.953125 148.414062"/></g><g clip-path="url(#c)"><path fill="#734BD1" d="M 352.953125 148.414062 L 457.15625 148.414062 L 643.65625 601.132812 L 539.433594 601.132812 L 405.054688 274.910156 L 457.15625 148.414062 L 352.953125 148.414062"/></g><g clip-path="url(#d)"><path fill="#734BD1" d="M 352.953125 148.414062 L 457.15625 148.414062 L 405.054688 274.910156 L 352.953125 148.414062"/></g><g clip-path="url(#e)"><g clip-path="url(#f)"><g clip-path="url(#g)"><path fill="#734BD1" d="M 105.636719 484.023438 L 202.882812 387.804688 L 555.703125 388.289062 L 595.265625 484.707031 L 105.636719 484.023438"/></g></g></g><g clip-path="url(#h)"><g clip-path="url(#i)"><g clip-path="url(#j)"><path fill="#4CC2DC" d="M 105.636719 484.023438 L 66.078125 387.621094 L 414.113281 43.226562 L 453.675781 139.644531 L 202.882812 387.804688 L 66.078125 387.621094 L 105.636719 484.023438"/></g></g></g><g clip-path="url(#k)"><g clip-path="url(#l)"><g clip-path="url(#m)"><path fill="#734BD1" d="M 704.707031 485.160156 L 607.785156 388.613281 L 254.96875 387.910156 L 215.078125 484.195312 L 704.707031 485.160156"/></g></g></g><g clip-path="url(#n)"><g clip-path="url(#o)"><g clip-path="url(#p)"><path fill="#4CC2DC" d="M 704.707031 485.160156 L 744.589844 388.890625 L 397.714844 43.328125 L 357.828125 139.613281 L 607.785156 388.613281 L 744.589844 388.890625 L 704.707031 485.160156"/></g></g></g></svg>